<svg viewBox="0 0 348 348" fill="none" xml:space="preserve" xmlns="http://www.w3.org/2000/svg"><path d="M5.079 5.776h336.913v337.67H5.08z" stroke-width="2" stroke="#000"/><path d="M282.734 40.554c0-8.376 6.966-15.165 15.56-15.165 4.126 0 8.084 1.597 11.001 4.441 2.918 2.844 4.558 6.702 4.558 10.724 0 8.376-6.966 15.165-15.56 15.165-8.593 0-15.559-6.79-15.559-15.165z" stroke-width="2" stroke="#000"/><path style="display:inline;opacity:1;mix-blend-mode:normal;fill:none;fill-opacity:1;stroke:#000;stroke-width:1.50047;stroke-opacity:1" d="M23.887 130.986h85.634v85.23H23.887z" transform="translate(8.252 .4)"/><g fill="#000100"><path d="M83.07 147.344a8.87 8.87 0 0 1 .432.403c.943.975 1.417 2.405 1.403 3.75-.037 1.213-.518 2.22-1.055 3.284l.075-.022c1.209-.265 2.648.144 3.667.79.844.568 1.52 1.326 1.94 2.255.224-.08.425-.195.632-.31l.12-.067c.32-.177.637-.36.957-.541.304-.174.614-.342.92-.505.32-.173.636-.348.952-.533l.095-.056.09-.053c.988-.586 1.962-1.02 3.13-1.01h.156c1.313.019 2.423.587 3.338 1.511a4.42 4.42 0 0 1 1.173 3.068v.143l-.005.345.081-.049c1.318-.78 2.662-1.25 4.205-.88a4.78 4.78 0 0 1 1.85.97l.097.078c.93.772 1.43 1.949 1.57 3.127.096 1.163-.308 2.386-1.046 3.288l-.08.094-.084.103c-.524.618-1.254 1.064-1.99 1.385h-.09c.106.116.217.188.352.268 1.128.708 1.823 1.768 2.13 3.054.261 1.15.007 2.382-.6 3.384a4.963 4.963 0 0 1-.668.83l-.082.092c-.496.537-1.308 1.02-1.994 1.263h-.09v.09l.098.035c1.002.434 1.733 1.512 2.12 2.486a4.804 4.804 0 0 1-.19 3.578c-.297.6-.682 1.155-1.214 1.57l-.107.085c-.284.215-.582.39-.894.56-.212.117-.422.238-.631.36a50.16 50.16 0 0 1-1.444.808 37.62 37.62 0 0 0-.907.505c-.41.234-.825.46-1.245.681-.36.192-.717.387-1.07.587-.386.22-.775.433-1.168.64-.352.188-.704.376-1.051.573-.304.173-.609.341-.916.51l-.086.047c-.382.211-.766.42-1.15.628-.392.21-.78.428-1.164.65-.374.211-.753.415-1.132.617-.322.173-.641.35-.957.528-.42.24-.843.47-1.272.7-.305.163-.61.329-.911.496l-.623.346c-.519.287-1.042.573-1.556.866-.318.18-.637.356-.961.524-.264.138-.524.284-.78.432-.392.222-.786.437-1.183.65-.433.23-.862.464-1.286.707-.222.128-.445.248-.676.36-.668.31-.668.31-1.052.903l-.054.17c-.052.13-.109.256-.166.383l-.044.102a13.703 13.703 0 0 1-2.437 3.686 9.728 9.728 0 0 0-.254.29 10.35 10.35 0 0 1-.474.5l-.079.081a6.14 6.14 0 0 1-.2.19h-.09v.09c-.085.08-.085.08-.206.176l-.138.11-.075.059c-.08.063-.158.128-.237.193-.383.313-.776.595-1.196.862l-.092.059c-1.439.92-3.005 1.61-4.692 1.926-.046.01-.092.018-.14.027-1.597.295-3.212.184-4.827-.057a27.988 27.988 0 0 1-2.854-.557l-.167-.04a30.915 30.915 0 0 1-7.219-2.793 23.33 23.33 0 0 0-.278-.145 24.084 24.084 0 0 1-4.421-2.928l-.088-.073c-.274-.23-.546-.46-.794-.718-.074-.076-.074-.076-.2-.175a3.118 3.118 0 0 1-.363-.374 6.438 6.438 0 0 0-.19-.209c-.938-.988-1.691-2.3-2.25-3.537-.096-.21-.197-.415-.3-.622-.186-.368-.356-.74-.52-1.12l-.043-.099a45.254 45.254 0 0 1-.799-1.962l-.097-.252a63.746 63.746 0 0 1-.979-2.748c-.108-.324-.217-.65-.329-.974a188.552 188.552 0 0 1-2.346-7.354 80.605 80.605 0 0 0-.84-2.616c-.08-.241-.162-.482-.248-.722-.209-.595-.36-1.19-.469-1.813a19.343 19.343 0 0 0-.054-.29c-.292-1.647.154-3.505 1.1-4.872.827-1.142 2.031-1.963 3.43-2.188 1.416-.21 2.833.087 3.997.938.247.193.483.397.708.614l.114.107c.686.663 1.227 1.533 1.597 2.413l.062.145c.25.605.46 1.228.672 1.85.196.573.404 1.142.623 1.71.203-.377.402-.753.577-1.141.134-.295.29-.569.46-.848.214-.349.404-.7.582-1.07l.243-.487c.215-.427.424-.857.632-1.286.268-.564.545-1.123.82-1.687.18-.366.358-.73.533-1.1.128-.275.26-.547.397-.817.184-.366.362-.736.54-1.101l.114-.233c.273-.56.546-1.123.82-1.682.258-.528.515-1.06.772-1.588.269-.55.537-1.101.803-1.656.238-.487.474-.98.713-1.466.29-.596.578-1.187.866-1.783.016-.03.03-.061.046-.093.2-.411.397-.821.591-1.237.12-.252.244-.505.37-.753.153-.306.3-.613.446-.925.116-.244.235-.487.357-.73.204-.408.404-.817.604-1.228l.195-.4c.201-.41.401-.82.596-1.23l.142-.298.125-.266a5.98 5.98 0 0 1 1.1-1.615l.097-.11c.808-.87 2.085-1.46 3.271-1.52 1.651-.054 2.969.41 4.214 1.485.348.328.64.74.902 1.137l.04-.086c.695-1.484.695-1.484 1.132-1.99.038-.042.075-.085.113-.13 1.967-2.233 5.279-2.368 7.534-.492zm-5.55 1.936c-.448.46-.699 1.037-.965 1.61-.112.238-.229.474-.346.708-.175.349-.346.7-.52 1.052l-.162.334c-.2.41-.397.822-.591 1.232-.103.22-.21.436-.32.654-.147.293-.289.591-.428.885a27.86 27.86 0 0 1-.316.65c-.254.504-.501 1.01-.75 1.515l-.076.155c-.303.618-.604 1.24-.906 1.863-.223.465-.448.925-.673 1.386-.29.595-.582 1.19-.87 1.786l-.049.1c-.204.419-.407.838-.604 1.263-.102.216-.208.43-.316.645-.231.464-.46.93-.685 1.394l-.067.136c-.364.744-.726 1.489-1.078 2.242-.171.367-.349.731-.532 1.092l-.25.496c-.03.062-.061.123-.092.183l-.066.133a7.345 7.345 0 0 1-.582-.26l-.103-.05-.323-.158-.216-.105-.21-.102-.096-.047a59.56 59.56 0 0 1-.636-.316c.062-.203.145-.389.242-.577.156-.306.306-.614.456-.925.221-.46.444-.925.668-1.385l.098-.202.198-.407c.685-1.407.685-1.407 1.353-2.824.352-.762.717-1.52 1.083-2.274l.478-.983.078-.162c.172-.355.342-.708.51-1.065.103-.219.21-.435.319-.65a216.958 216.958 0 0 0 .899-1.823c.244-.497.487-.997.726-1.494l.067-.14c.174-.361.345-.725.496-1.095l.05-.12c.225-.664.12-1.413-.14-2.045l-.052-.128c-.334-.731-.97-1.214-1.706-1.498a3.012 3.012 0 0 0-2.255.18c-.912.528-1.313 1.327-1.742 2.256-.105.226-.213.451-.32.677l-.064.132c-.174.365-.355.726-.537 1.087a90.88 90.88 0 0 0-.776 1.575c-.225.474-.46.943-.694 1.412-.224.446-.444.893-.659 1.344-.136.288-.277.573-.42.858-.16.318-.316.636-.47.956-.242.51-.496 1.015-.749 1.525-.269.537-.536 1.074-.794 1.615-.18.38-.37.758-.559 1.133-.204.406-.403.812-.596 1.227-.162.34-.33.676-.5 1.015a44.464 44.464 0 0 0-.767 1.592 61.574 61.574 0 0 1-.725 1.51l-.112.23-.055.112-.053.11c-.13.266-.259.532-.386.798-.287.605-.582 1.2-.875 1.805-.216.44-.43.88-.64 1.322a37.946 37.946 0 0 1-1.264 2.418l-.297.519-.093.162c-.266.465-.528.93-.785 1.399a15.05 15.05 0 0 1-.156.277c-.068.12-.068.12-.116.236a.617.617 0 0 1-.177.249c-.202.053-.394.05-.6.045l-.164.004c-.274-.003-.46-.018-.659-.213a2.906 2.906 0 0 1-.351-.519c-.017-.03-.034-.061-.05-.093-.85-1.597-1.427-3.36-2.009-5.052-.304-.89-.676-1.701-1.308-2.41l-.09-.103c-.519-.555-1.263-.965-2.03-1.024-.857-.024-1.566.292-2.202.866-.875.939-1.047 2.157-1.01 3.388.032.767.296 1.485.545 2.206.319.92.614 1.846.894 2.78l.281.929.063.207a263.702 263.702 0 0 0 .937 3.027c.404 1.3.83 2.594 1.29 3.875.103.286.202.573.3.857.83 2.428 1.778 4.918 3.05 7.129l.07.125c.475.834.984 1.606 1.688 2.264.104.104.208.207.31.313.218.225.45.425.694.618l.166.131c1.033.821 2.134 1.525 3.284 2.175a12.753 12.753 0 0 0 1.261.683c.113.055.224.112.336.169 3.216 1.642 6.947 2.874 10.602 2.95l.09.003c2.54.074 5.009-.862 6.949-2.486l.075-.063c.659-.537.659-.537 1.241-1.15.093-.11.19-.213.29-.318 1.023-1.128 1.723-2.467 2.363-3.839l.162-.342c.03-.067.062-.133.094-.2.1-.215.206-.427.313-.64.232-.46.46-.93.685-1.395l.067-.135c.364-.745.727-1.494 1.078-2.243.187-.397.381-.79.578-1.182.405-.803.799-1.615 1.182-2.427.2-.425.408-.843.618-1.263a97.705 97.705 0 0 0 1.027-2.115l.093-.197c.1-.213.205-.424.31-.636.233-.465.46-.93.686-1.394l.067-.136c.364-.745.726-1.493 1.078-2.242.186-.398.38-.79.577-1.182.437-.867.858-1.737 1.273-2.617.112-.238.228-.474.347-.708.147-.292.286-.587.426-.88.113-.24.23-.478.35-.713.154-.303.294-.614.432-.92.218-.488.444-.97.686-1.449a53.737 53.737 0 0 0 .737-1.524c.41-.884.56-1.71.22-2.644a3.072 3.072 0 0 0-1.58-1.66 3.034 3.034 0 0 0-2.255 0c-1.245.578-1.683 1.705-2.238 2.874a107.677 107.677 0 0 1-.788 1.625c-.14.28-.277.56-.412.844-.262.545-.527 1.091-.794 1.637-.292.596-.586 1.196-.875 1.796l-.839 1.728-.06.122-.168.345-.05.103-.047.097-.046.094a9.689 9.689 0 0 1-.098.193l-.05.097-.046.086c-.041.085-.041.085-.033.214l-.316-.152-.278-.132c-.247-.118-.496-.237-.74-.356a37.618 37.618 0 0 1-.416-.201l-.125-.06-.11-.054c-.087-.044-.087-.044-.18-.038.126-.325.266-.64.418-.952l.066-.138c.14-.288.281-.577.426-.861.107-.212.209-.427.309-.64.114-.245.23-.488.352-.727.15-.297.294-.596.437-.898.198-.416.402-.83.61-1.24.405-.804.798-1.616 1.181-2.432.125-.267.255-.533.388-.794.155-.309.304-.623.451-.934.118-.247.238-.492.36-.736a86.7 86.7 0 0 0 .67-1.366c.231-.474.46-.948.686-1.426.121-.254.246-.505.373-.758.123-.245.24-.492.356-.74.09-.191.182-.381.278-.568.326-.645.65-1.322.578-2.062l-.011-.12a3.057 3.057 0 0 0-.623-1.503l-.085-.11a2.91 2.91 0 0 0-1.854-1.02c-.952-.043-1.706.195-2.441.803-.42.39-.65.947-.898 1.452l-.054.112c-.215.445-.426.89-.623 1.345-.107.247-.228.487-.349.73-.192.383-.379.768-.568 1.151l-.057.116c-.39.803-.78 1.606-1.16 2.418-.111.239-.229.474-.347.709-.118.233-.23.469-.342.708-.182.386-.371.767-.564 1.15-.436.866-.857 1.737-1.272 2.617-.112.238-.229.474-.347.708-.127.251-.248.506-.368.758-.146.309-.295.614-.449.92-.147.293-.287.587-.426.885-.126.265-.255.528-.388.79-.273-.078-.519-.21-.771-.339-.506-.256-1.02-.5-1.53-.744.21-.45.425-.898.65-1.345.308-.613.604-1.232.893-1.854.186-.397.38-.79.578-1.182a60.23 60.23 0 0 0 .771-1.57c.236-.496.478-.984.717-1.475.371-.758.74-1.516 1.101-2.279.214-.455.434-.902.659-1.353a91.55 91.55 0 0 0 1.1-2.26c.17-.359.34-.713.52-1.07.125-.25.245-.5.364-.753.147-.309.296-.614.45-.92.145-.289.283-.578.42-.871.129-.27.26-.537.395-.803.116-.231.227-.465.337-.7.138-.291.279-.582.424-.87.15-.297.292-.596.433-.898l.054-.115.053-.111c.048-.1.098-.198.149-.296.174-.348.283-.731.308-1.12l.007-.088c.037-.812-.303-1.565-.843-2.156l-.113-.102-.072-.072c-1.119-1.074-2.892-.902-3.974.123zm16.332 8.571c-.282.161-.564.316-.852.465-.43.226-.858.46-1.282.695l-.166.091-.44.242-.172.094c-.132.072-.263.145-.394.219a5.16 5.16 0 0 1-.252.132c-.18.092-.18.092-.277.26-.016.115-.02.226-.022.34-.004.086-.01.172-.015.257l-.009.131c-.062.659-.314 1.254-.6 1.84l-.134.28c-.067.143-.135.285-.204.427l-.062.129-.057.115c-.042.079-.042.079-.04.133l.123-.002c1.133-.008 2.216.12 3.204.718.108.063.108.063.28.05.12-.051.12-.051.247-.123l.145-.08.156-.085.16-.088a74.116 74.116 0 0 0 .586-.323c.23-.127.46-.256.69-.385.45-.25.902-.5 1.353-.744.42-.227.84-.456 1.26-.69.065-.037.13-.074.197-.11.6-.33 1.119-.663 1.434-1.3l.054-.104c.268-.56.323-1.258.128-1.854a3.035 3.035 0 0 0-.722-1.11l-.077-.078c-.474-.446-1.119-.623-1.755-.618-.902.033-1.723.636-2.486 1.069zm8.843 3.46-.124.067c-.515.274-1.024.555-1.53.853-.18.105-.36.205-.546.295-.26.126-.51.269-.762.412-.384.219-.771.432-1.16.64-.387.21-.775.42-1.163.637l-.767.424c-1.313.721-1.313.721-2.613 1.457l.07.12c.7 1.25 1.001 2.762.609 4.165a6.118 6.118 0 0 1-.492 1.254c-.056.094-.056.094-.05.19.19-.059.354-.13.524-.227l.147-.083c.051-.03.103-.058.157-.088l.329-.185.084-.047c.27-.151.541-.298.812-.445.336-.181.672-.364 1.001-.55.372-.208.745-.413 1.12-.619l.17-.094.086-.047.596-.33c.11-.06.221-.121.331-.183l.083-.045c.37-.205.744-.408 1.114-.61.347-.186.69-.377 1.033-.572.39-.223.785-.437 1.182-.65.528-.281.528-.281 1.047-.573.17-.097.344-.193.519-.286l.35-.19.173-.094c.772-.413 1.39-.911 1.683-1.768a2.73 2.73 0 0 0-.275-2.107 2.725 2.725 0 0 0-1.714-1.191c-.767-.128-1.367.109-2.03.464zm-.564 8.708a67.032 67.032 0 0 0-1.925 1.052c-.374.213-.754.416-1.133.618-.33.176-.658.353-.983.537-.268.152-.537.298-.812.444-.297.161-.596.322-.889.488-.33.186-.659.37-.992.55-.028.015-.056.03-.084.047l-.876.482-.35.193-.165.091c-.319.175-.636.353-.948.537-.143.083-.289.157-.437.23-.244.18-.355.505-.479.771a79.062 79.062 0 0 1-.206.436c-.144.304-.292.604-.44.911l-.097.202c-.282.578-.564 1.155-.844 1.737-.236.488-.473.97-.708 1.458l-.048.097-.423.871c-.373.767-.745 1.534-1.12 2.301l-.057.117-.228.47c-.713 1.456-.713 1.456-1.417 2.913-.266.55-.536 1.101-.803 1.652-.259.532-.518 1.06-.776 1.592-.22.456-.441.907-.663 1.363-.16.327-.32.654-.478.983l-.144.296-.252.519-.075.153-.066.138-.058.12c-.047.09-.047.09-.04.184.194-.073.375-.165.559-.262l.1-.054c.325-.173.645-.356.965-.537.314-.178.632-.351.948-.523.35-.188.7-.38 1.042-.577.405-.231.812-.452 1.227-.673.681-.361 1.358-.73 2.026-1.123.222-.13.446-.254.672-.377.23-.125.46-.253.69-.38.573-.32 1.146-.637 1.72-.953.194-.107.389-.215.586-.322.56-.31 1.123-.618 1.687-.92.275-.15.55-.3.821-.456.248-.14.496-.276.749-.412.345-.187.686-.378 1.029-.573.398-.226.798-.446 1.2-.663.306-.165.609-.335.911-.505.41-.234.826-.46 1.24-.682.414-.22.822-.446 1.228-.676.257-.147.519-.288.78-.423.283-.148.546-.306.799-.501l.096-.072c.46-.37.767-.97.853-1.552.05-.79-.115-1.422-.591-2.067a25.565 25.565 0 0 1-.087-.097h-.09l-.045-.135c-.568-.506-1.281-.677-2.021-.641-.799.064-1.588.659-2.265 1.042-.322.183-.645.36-.974.532-.426.228-.849.46-1.273.69l-.083.047c-.401.22-.799.447-1.196.676-.228.132-.46.253-.699.368-.214.11-.422.23-.632.348-.432.247-.866.488-1.308.722-.225.12-.45.242-.672.37l-.114.065-.205.12c-.218.125-.218.125-.336.122-.134-.064-.168-.154-.236-.285l-.08-.152-.083-.161-.083-.155a49.779 49.779 0 0 1-.51-1.002c.035-.019.07-.037.104-.057l.488-.267.09-.05a88.34 88.34 0 0 0 1.15-.645c.406-.231.817-.451 1.227-.672.404-.215.804-.437 1.2-.664.323-.182.646-.36.975-.532.371-.198.74-.4 1.105-.609.415-.236.835-.465 1.255-.69.374-.2.744-.408 1.114-.618.277-.157.555-.309.84-.456.262-.138.522-.284.78-.431.39-.223.785-.438 1.182-.65.402-.214.803-.43 1.2-.654l.122-.069c.794-.45 1.44-.875 1.715-1.795.17-.659.129-1.376-.2-1.976-.404-.65-.966-1.115-1.719-1.29-.726-.131-1.317.033-1.954.379zM104.815 143.42c.386.256.64.559.767 1.005.048.436-.005.794-.262 1.15-.218.26-.47.45-.749.637-.174.115-.34.24-.51.367-.357.27-.721.532-1.082.794l-.308.222c-.36.262-.722.52-1.087.776-.271.19-.537.384-.808.578-.228.165-.456.329-.686.492-.145.103-.29.208-.435.314a34.61 34.61 0 0 1-.989.699l-.081.056c-.387.259-.808.289-1.259.229-.447-.135-.749-.41-.965-.817-.141-.352-.128-.785-.003-1.141.243-.506.686-.78 1.137-1.083.175-.121.347-.247.519-.371l.204-.149.1-.072c.16-.116.323-.231.487-.347.212-.152.425-.305.636-.46a84.9 84.9 0 0 1 .893-.636c.267-.188.532-.38.798-.573.258-.187.52-.37.776-.55.25-.176.492-.356.74-.537 1.372-1.015 1.372-1.015 2.17-.587zM97.867 135.343c.375.212.614.46.758.867.19.79-.285 1.56-.6 2.26l-.115.258-.173.391c-.17.38-.337.763-.506 1.146l-.152.349-.072.165-.376.857c-.118.269-.237.537-.354.808l-.086.196-.126.29c-.541 1.245-.541 1.245-1.132 1.488a1.407 1.407 0 0 1-.387.086l-.17.011a1.435 1.435 0 0 1-1.005-.417c-.294-.315-.474-.632-.46-1.074.068-.55.357-1.078.582-1.575l.115-.257.237-.533c.177-.398.352-.798.527-1.195l.101-.228c.269-.614.537-1.228.803-1.841l.218-.5.093-.214.146-.332.044-.103c.145-.327.315-.609.618-.807l.091-.061c.437-.26.925-.252 1.376-.03zM87.581 135.6c.268.214.442.496.533.826.012.158.011.315.01.473V137.85l-.001.704v.88c0 .74-.004 1.484-.01 2.224v.172l-.012.997-.004.306-.006.42v.124c-.01.42-.155.776-.429 1.096-.334.281-.717.431-1.159.397a1.457 1.457 0 0 1-.961-.533c-.278-.389-.329-.708-.327-1.182V142.35l.002-.817v-.826c0-.884.003-1.768.01-2.652v-.147a63.924 63.924 0 0 1 .012-.924c.005-.505.087-.911.442-1.286.568-.519 1.281-.514 1.904-.093z"/></g><path style="fill:#afffb4;fill-opacity:0;stroke:#000;stroke-width:1.4621;stroke-opacity:1" fill="none" d="M237.317 132.987h83.247v83.247h-83.247z" transform="translate(-7.483 -.611)"/><path d="M270.439 138.213c.152.148.291.3.424.465.167.206.338.41.51.612.168.196.334.392.495.594.18.222.37.433.561.645.211.23.413.466.613.706.224.268.455.529.692.781.186.2.358.41.528.622.108.13.223.247.344.363.111.112.214.23.317.35.098.114.198.225.298.336.124.137.247.275.369.415.14.16.282.317.426.472.17.186.339.372.505.561.165.189.334.375.5.562.224.246.446.495.665.743l.295.33c.225.25.448.5.664.758.221.26.443.519.673.771.188.205.364.418.538.636.11.132.224.26.34.386.188.204.365.415.538.631.135.164.274.323.414.482.22.252.43.51.636.776.14.18.286.356.436.528.302.352.575.725.846 1.104.067.093.135.185.204.277.645.88 1.337 1.829 1.23 2.96-.213 1.328-.94 2.581-1.67 3.694-.056.085-.11.17-.165.257-.228.359-.463.711-.697 1.066l-.095.143c-.167.252-.338.5-.514.748-1.23 1.758-2.417 3.554-3.409 5.47l-.056.108c-.11.212-.215.425-.318.64l-.058.12c-1.099 2.296-2.282 5.611-1.487 8.136.012.036.021.072.032.11.496 1.682 1.351 3.3 2.235 4.815.103.178.203.356.303.533.429.767.879 1.515 1.35 2.259.093.144.185.29.275.434.357.57.725 1.132 1.1 1.688l.171.257a261.543 261.543 0 0 1 .683 1.024 53.264 53.264 0 0 0 .473.698 96.18 96.18 0 0 0 2.59 3.568l.088.116c.346.457.692.912 1.057 1.356.096.117.164.207.212.352-.284-.08-.538-.22-.8-.353-2.113-1.067-4.343-1.73-6.733-1.721h-.13c-.623.002-1.23.016-1.843.155l-.129.028c-2.057.462-3.895 1.603-5.05 3.394-1.075 1.702-1.917 3.989-1.463 6.032.325 1.31 1.15 2.45 1.88 3.563.263.4.519.8.771 1.207l.175.279.106.168.09.143c.062.11.062.11.062.204a1.874 1.874 0 0 1-.524-.298 43.994 43.994 0 0 1-.175-.127l-.093-.067c-.159-.115-.32-.228-.482-.34a52.966 52.966 0 0 1-2.903-2.189l-.316-.252a20.02 20.02 0 0 1-1.338-1.17c-.14-.131-.281-.26-.428-.386-.232-.202-.448-.42-.664-.636l-.122-.121a11.667 11.667 0 0 1-.668-.725l-.134-.152a16.106 16.106 0 0 1-1.505-2.001l-.054-.083c-1.496-2.338-1.72-5.003-1.16-7.715.055-.246.117-.486.184-.73l.03-.109c.22-.785.584-1.575 1.14-2.183l.096-.115c.8-.945 1.922-1.384 3.1-1.646l.12-.027c1.048-.22 2.119-.289 3.185-.376.71-.058 1.412-.12 2.118-.22l.154-.022a13.558 13.558 0 0 0 2.273-.542c.13-.041.13-.041.223-.041a9.505 9.505 0 0 0-.63-.678 8.258 8.258 0 0 1-.543-.58c-.118-.136-.24-.267-.362-.4-.352-.38-.697-.761-1.024-1.163a8.56 8.56 0 0 0-.31-.352 11.05 11.05 0 0 1-.523-.631c-.173-.223-.352-.44-.533-.655a24.296 24.296 0 0 1-.823-1.057 43.273 43.273 0 0 0-.277-.368 53.53 53.53 0 0 1-2.841-4.162c-3.255-5.283-3.255-5.283-2.806-7.34.127-.468.34-.894.57-1.32l.065-.12c.3-.566.617-1.118.963-1.656l.1-.158.263-.406.183-.285c.455-.706.921-1.402 1.389-2.1l.062-.092.122-.183c.28-.418.557-.837.832-1.258.02-.028.038-.057.058-.087 1.375-2.104 2.707-4.227 3.769-6.5l.066-.139c.02-.045.042-.09.064-.136l.057-.122c.09-.224.1-.434.1-.673v-2.344c0-.683-.015-1.36-.132-2.034l-.025-.143c-.374-2.085-1.132-4.068-1.898-6.032-.232-.594-.46-1.192-.683-1.79l-.037-.1a171.504 171.504 0 0 1-.28-.763l-.053-.14-.045-.122c-.032-.097-.032-.097-.032-.19z" fill="#000100" style="stroke-width:.0467584"/></svg>